<svg width="87" height="33" viewBox="0 0 87 33" fill="none" xmlns="http://www.w3.org/2000/svg">
<path d="M1.162 29V19.2H5.614C6.678 19.2 7.616 19.4053 8.428 19.816C9.24 20.2173 9.87467 20.782 10.332 21.51C10.7893 22.238 11.018 23.1013 11.018 24.1C11.018 25.0893 10.7893 25.9527 10.332 26.69C9.87467 27.418 9.24 27.9873 8.428 28.398C7.616 28.7993 6.678 29 5.614 29H1.162ZM3.43 27.138H5.502C6.15533 27.138 6.72 27.0167 7.196 26.774C7.68133 26.522 8.05467 26.1673 8.316 25.71C8.58667 25.2527 8.722 24.716 8.722 24.1C8.722 23.4747 8.58667 22.938 8.316 22.49C8.05467 22.0327 7.68133 21.6827 7.196 21.44C6.72 21.188 6.15533 21.062 5.502 21.062H3.43V27.138ZM16.3124 29.112C15.4537 29.112 14.6977 28.944 14.0444 28.608C13.4004 28.272 12.9011 27.8147 12.5464 27.236C12.1917 26.648 12.0144 25.9807 12.0144 25.234C12.0144 24.478 12.1871 23.8107 12.5324 23.232C12.8871 22.644 13.3677 22.1867 13.9744 21.86C14.5811 21.524 15.2671 21.356 16.0324 21.356C16.7697 21.356 17.4324 21.5147 18.0204 21.832C18.6177 22.14 19.0891 22.588 19.4344 23.176C19.7797 23.7547 19.9524 24.45 19.9524 25.262C19.9524 25.346 19.9477 25.444 19.9384 25.556C19.9291 25.6587 19.9197 25.7567 19.9104 25.85H13.7924V24.576H18.7624L17.9224 24.954C17.9224 24.562 17.8431 24.2213 17.6844 23.932C17.5257 23.6427 17.3064 23.4187 17.0264 23.26C16.7464 23.092 16.4197 23.008 16.0464 23.008C15.6731 23.008 15.3417 23.092 15.0524 23.26C14.7724 23.4187 14.5531 23.6473 14.3944 23.946C14.2357 24.2353 14.1564 24.5807 14.1564 24.982V25.318C14.1564 25.7287 14.2451 26.0927 14.4224 26.41C14.6091 26.718 14.8657 26.956 15.1924 27.124C15.5284 27.2827 15.9204 27.362 16.3684 27.362C16.7697 27.362 17.1197 27.3013 17.4184 27.18C17.7264 27.0587 18.0064 26.8767 18.2584 26.634L19.4204 27.894C19.0751 28.286 18.6411 28.5893 18.1184 28.804C17.5957 29.0093 16.9937 29.112 16.3124 29.112ZM25.1444 29.112C24.2858 29.112 23.5298 28.944 22.8764 28.608C22.2324 28.272 21.7331 27.8147 21.3784 27.236C21.0238 26.648 20.8464 25.9807 20.8464 25.234C20.8464 24.478 21.0191 23.8107 21.3644 23.232C21.7191 22.644 22.1998 22.1867 22.8064 21.86C23.4131 21.524 24.0991 21.356 24.8644 21.356C25.6018 21.356 26.2644 21.5147 26.8524 21.832C27.4498 22.14 27.9211 22.588 28.2664 23.176C28.6118 23.7547 28.7844 24.45 28.7844 25.262C28.7844 25.346 28.7798 25.444 28.7704 25.556C28.7611 25.6587 28.7518 25.7567 28.7424 25.85H22.6244V24.576H27.5944L26.7544 24.954C26.7544 24.562 26.6751 24.2213 26.5164 23.932C26.3578 23.6427 26.1384 23.4187 25.8584 23.26C25.5784 23.092 25.2518 23.008 24.8784 23.008C24.5051 23.008 24.1738 23.092 23.8844 23.26C23.6044 23.4187 23.3851 23.6473 23.2264 23.946C23.0678 24.2353 22.9884 24.5807 22.9884 24.982V25.318C22.9884 25.7287 23.0771 26.0927 23.2544 26.41C23.4411 26.718 23.6978 26.956 24.0244 27.124C24.3604 27.2827 24.7524 27.362 25.2004 27.362C25.6018 27.362 25.9518 27.3013 26.2504 27.18C26.5584 27.0587 26.8384 26.8767 27.0904 26.634L28.2524 27.894C27.9071 28.286 27.4731 28.5893 26.9504 28.804C26.4278 29.0093 25.8258 29.112 25.1444 29.112ZM30.2385 29V21.468H32.3245V23.554L31.9325 22.924C32.2031 22.42 32.5905 22.0327 33.0945 21.762C33.5985 21.4913 34.1725 21.356 34.8165 21.356C35.4138 21.356 35.9458 21.4773 36.4125 21.72C36.8885 21.9533 37.2618 22.3173 37.5325 22.812C37.8031 23.2973 37.9385 23.9227 37.9385 24.688V29H35.7545V25.024C35.7545 24.4173 35.6191 23.9693 35.3485 23.68C35.0871 23.3907 34.7138 23.246 34.2285 23.246C33.8831 23.246 33.5705 23.3207 33.2905 23.47C33.0198 23.61 32.8051 23.8293 32.6465 24.128C32.4971 24.4267 32.4225 24.8093 32.4225 25.276V29H30.2385Z" fill="white"/>
<path d="M50.008 29V17.8H52.6V29H50.008ZM42.328 29V17.8H44.92V29H42.328ZM44.728 24.408V22.216H50.2V24.408H44.728ZM59.9859 29.128C59.2712 29.128 58.6312 28.9893 58.0659 28.712C57.5112 28.4347 57.0792 28.0133 56.7699 27.448C56.4605 26.872 56.3059 26.1413 56.3059 25.256V20.392H58.8019V24.888C58.8019 25.6027 58.9512 26.1307 59.2499 26.472C59.5592 26.8027 59.9912 26.968 60.5459 26.968C60.9299 26.968 61.2712 26.888 61.5699 26.728C61.8685 26.5573 62.1032 26.3013 62.2739 25.96C62.4445 25.608 62.5299 25.1707 62.5299 24.648V20.392H65.0259V29H62.6579V26.632L63.0899 27.32C62.8019 27.9173 62.3752 28.3707 61.8099 28.68C61.2552 28.9787 60.6472 29.128 59.9859 29.128ZM73.7062 29.128C72.9489 29.128 72.2982 28.968 71.7542 28.648C71.2102 28.328 70.7942 27.8427 70.5062 27.192C70.2182 26.5307 70.0742 25.6987 70.0742 24.696C70.0742 23.6827 70.2236 22.8507 70.5222 22.2C70.8316 21.5493 71.2582 21.064 71.8022 20.744C72.3462 20.424 72.9809 20.264 73.7062 20.264C74.5169 20.264 75.2422 20.4453 75.8822 20.808C76.5329 21.1707 77.0449 21.6827 77.4183 22.344C77.8023 23.0053 77.9943 23.7893 77.9943 24.696C77.9943 25.592 77.8023 26.3707 77.4183 27.032C77.0449 27.6933 76.5329 28.2107 75.8822 28.584C75.2422 28.9467 74.5169 29.128 73.7062 29.128ZM68.6182 29V17.128H71.1142V22.136L70.9542 24.68L71.0022 27.24V29H68.6182ZM73.2742 27.08C73.6902 27.08 74.0582 26.984 74.3782 26.792C74.7089 26.6 74.9702 26.328 75.1623 25.976C75.3649 25.6133 75.4662 25.1867 75.4662 24.696C75.4662 24.1947 75.3649 23.768 75.1623 23.416C74.9702 23.064 74.7089 22.792 74.3782 22.6C74.0582 22.408 73.6902 22.312 73.2742 22.312C72.8582 22.312 72.4849 22.408 72.1542 22.6C71.8236 22.792 71.5622 23.064 71.3702 23.416C71.1782 23.768 71.0822 24.1947 71.0822 24.696C71.0822 25.1867 71.1782 25.6133 71.3702 25.976C71.5622 26.328 71.8236 26.6 72.1542 26.792C72.4849 26.984 72.8582 27.08 73.2742 27.08Z" fill="white"/>
<path d="M22.2128 5.4958C20.8912 3.80655 20.0992 1.96979 19.7308 0.639557L19.5 0L19.2683 0.639135C18.8999 1.96939 18.1089 3.80646 16.7872 5.4958C15.2934 7.40501 13.1317 9.11549 10.1488 9.70784C3.92414 10.9439 1.46057 16.251 1.00343 18.7495C0.981987 18.8671 1.06328 18.9792 1.18519 19H37.8148C37.9367 18.9792 38.018 18.8671 37.9966 18.7495C37.5394 16.2511 35.0758 10.9439 28.8512 9.70784C25.8684 9.1155 23.7066 7.40499 22.2128 5.4958Z" fill="white"/>
</svg>
